<svg width="76" height="38" viewBox="0 0 76 38" fill="none" xmlns="http://www.w3.org/2000/svg">
<path d="M3 16.5C1.61929 16.5 0.5 17.6193 0.5 19C0.5 20.3807 1.61929 21.5 3 21.5V16.5ZM74.7678 20.7678C75.7441 19.7915 75.7441 18.2085 74.7678 17.2322L58.8579 1.32233C57.8816 0.34602 56.2986 0.34602 55.3223 1.32233C54.346 2.29864 54.346 3.88155 55.3223 4.85786L69.4645 19L55.3223 33.1421C54.346 34.1184 54.346 35.7014 55.3223 36.6777C56.2986 37.654 57.8816 37.654 58.8579 36.6777L74.7678 20.7678ZM3 21.5H73V16.5H3V21.5Z" fill="#F75725"/>
</svg>
