<svg width="32" height="32" viewBox="0 0 32 32" fill="none" xmlns="http://www.w3.org/2000/svg">
<path fill-rule="evenodd" clip-rule="evenodd" d="M0 5.14517C0 4.51271 0.446184 4 0.996578 4H5.00342C5.55378 4 6 4.51271 6 5.14517V11.4681H0V5.14517ZM0 12.3298H6V13.4787H0V12.3298ZM0 14.3404V29.8548C0 30.4873 0.446185 31 0.996578 31H5.00342C5.55383 31 6 30.4873 6 29.8548V14.3404H0Z" fill="#F75725"/>
<path fill-rule="evenodd" clip-rule="evenodd" d="M14 5.14517C14 4.51271 14.4462 4 14.9966 4H19.0034C19.5538 4 20 4.51271 20 5.14517V11.4681H14V5.14517ZM14 12.3298H20V13.4787H14V12.3298ZM14 14.3404V29.8548C14 30.4873 14.4462 31 14.9966 31H19.0034C19.5538 31 20 30.4873 20 29.8548V14.3404H14Z" fill="#F75725"/>
<path fill-rule="evenodd" clip-rule="evenodd" d="M7.99659 8C7.44617 8 7 8.50067 7 9.11827V11.9268H13V9.11827C13 8.50067 12.5538 8 12.0034 8H7.99659ZM13 12.7683H7V13.8902H13V12.7683ZM7 29.8817V14.7317H13V29.8817C13 30.4993 12.5538 31 12.0034 31H7.99659C7.44617 31 7 30.4993 7 29.8817ZM9.5696 21.6592L11.781 21.5888V19.9762L8.25112 20.0545L8.20926 25.9333H9.64634L9.61146 24.0937L11.2857 24.0702L11.1741 22.442L9.58355 22.4655L9.5696 21.6592Z" fill="#F75725"/>
<path fill-rule="evenodd" clip-rule="evenodd" d="M27.069 7.03565C26.5018 6.87653 25.9275 7.26497 25.7861 7.90325L25.1429 10.8059L31.3252 12.5405L31.9683 9.63789C32.1097 8.99958 31.7646 8.35316 31.1975 8.19404L27.069 7.03565ZM31.1325 13.4101L24.9503 11.6755L24.6934 12.8351L30.8756 14.5697L31.1325 13.4101ZM21.0317 29.3621L24.5007 13.7047L30.683 15.4393L27.2139 31.0967C27.0725 31.7351 26.4981 32.1235 25.931 31.9643L21.8025 30.806C21.2354 30.6469 20.8903 30.0004 21.0317 29.3621ZM26.2722 24.2837L26.2867 25.5178L27.6621 25.6606L27.3002 20.0866L26.0218 19.7132L22.8563 24.2828L24.1672 24.8642L24.8166 23.7942L26.2722 24.2837ZM26.2545 22.7393L25.6029 22.4902L26.2445 21.4255L26.2545 22.7393Z" fill="#F75725"/>
</svg>
