<svg width="201" height="48" viewBox="0 0 201 48" fill="none" xmlns="http://www.w3.org/2000/svg">
<path fill-rule="evenodd" clip-rule="evenodd" d="M0 2C0 0.895428 0.895431 0 2 0H10.0412C11.1457 0 12.0412 0.895431 12.0412 2V13.0428H0V2ZM0 14.5477H12.0412V16.5543H0V14.5477ZM0 18.0592V45.1546C0 46.2592 0.895433 47.1546 2 47.1546H10.0412C11.1458 47.1546 12.0412 46.2592 12.0412 45.1546V18.0592H0Z" fill="#F75725"/>
<path fill-rule="evenodd" clip-rule="evenodd" d="M28.0957 2C28.0957 0.895428 28.9911 0 30.0957 0H38.1369C39.2415 0 40.1369 0.895431 40.1369 2V13.0428H28.0957V2ZM28.0957 14.5477H40.1369V16.5543H28.0957V14.5477ZM28.0957 18.0592V45.1546C28.0957 46.2592 28.9911 47.1546 30.0957 47.1546H38.1369C39.2415 47.1546 40.1369 46.2592 40.1369 45.1546V18.0592H28.0957Z" fill="#F75725"/>
<path fill-rule="evenodd" clip-rule="evenodd" d="M16.0479 6.01978C14.9433 6.01978 14.0479 6.91521 14.0479 8.01978V13.0428H26.089V8.01978C26.089 6.91521 25.1936 6.01978 24.089 6.01978H16.0479ZM26.089 14.5477H14.0479V16.5543H26.089V14.5477ZM14.0479 45.1547V18.0593H26.089V45.1547C26.089 46.2592 25.1936 47.1547 24.089 47.1547H16.0479C14.9433 47.1547 14.0479 46.2592 14.0479 45.1547ZM19.2047 30.449L23.6427 30.323V27.439L16.5587 27.579L16.4747 38.093H19.3587L19.2887 34.803L22.6487 34.761L22.4247 31.849L19.2327 31.891L19.2047 30.449Z" fill="white"/>
<path fill-rule="evenodd" clip-rule="evenodd" d="M54.2575 5.65813C53.1857 5.39095 52.1003 6.04318 51.833 7.11493L50.6176 11.9888L62.3012 14.9014L63.5165 10.0275C63.7838 8.95579 63.1316 7.87037 62.0598 7.60319L54.2575 5.65813ZM61.937 16.3616L50.2535 13.449L49.768 15.396L61.4515 18.3086L61.937 16.3616ZM42.848 43.1468L49.4039 16.8562L61.0874 19.7688L54.5315 46.0594C54.2642 47.1311 53.1787 47.7834 52.107 47.5162L44.3047 45.5711C43.2329 45.304 42.5807 44.2185 42.848 43.1468ZM52.7518 34.6195L52.7792 36.6917L55.3784 36.9315L54.6946 27.5722L52.2786 26.9451L46.2963 34.6179L48.7737 35.5942L50.0009 33.7977L52.7518 34.6195ZM52.7182 32.0264L51.4868 31.6081L52.6994 29.8203L52.7182 32.0264Z" fill="white"/>
<path d="M78.84 10.92L72.5 11.1L72.54 13.16L77.1 13.1L77.42 17.26L72.62 17.32L72.72 22.02H68.6L68.72 7L78.84 6.8V10.92ZM84.1805 11.02C85.3271 11.02 86.3138 11.28 87.1405 11.8C87.9671 12.3067 88.5871 13.0267 89.0005 13.96C89.4138 14.88 89.5938 15.94 89.5405 17.14L82.2405 17.66C82.4271 18.0733 82.7005 18.4067 83.0605 18.66C83.4338 18.9 83.8538 19.0267 84.3205 19.04C84.8005 19.04 85.2071 18.9533 85.5405 18.78C85.8738 18.6067 86.1138 18.3667 86.2605 18.06L89.4005 18.86C89.2005 19.5267 88.8471 20.12 88.3405 20.64C87.8338 21.16 87.2205 21.5667 86.5005 21.86C85.7938 22.1533 85.0605 22.3 84.3005 22.3C83.2605 22.3 82.3005 22.04 81.4205 21.52C80.5538 20.9867 79.8605 20.2733 79.3405 19.38C78.8338 18.4733 78.5805 17.48 78.5805 16.4C78.5805 15.3467 78.8205 14.4133 79.3005 13.6C79.7938 12.7867 80.4605 12.1533 81.3005 11.7C82.1538 11.2467 83.1138 11.02 84.1805 11.02ZM84.1205 13.7C83.6271 13.7 83.2071 13.84 82.8605 14.12C82.5271 14.4 82.2871 14.7733 82.1405 15.24L85.9205 14.9C85.8138 14.54 85.5938 14.2533 85.2605 14.04C84.9405 13.8133 84.5605 13.7 84.1205 13.7ZM98.5484 22.04V21.18C98.1751 21.5267 97.7018 21.8 97.1284 22C96.5684 22.2133 95.9684 22.32 95.3284 22.32C94.5151 22.32 93.7551 22.0667 93.0484 21.56C92.3418 21.04 91.7818 20.3467 91.3684 19.48C90.9551 18.6133 90.7484 17.6733 90.7484 16.66C90.7484 15.6467 90.9684 14.7 91.4084 13.82C91.8618 12.94 92.4551 12.2333 93.1884 11.7C93.9351 11.1667 94.7351 10.9 95.5884 10.9C96.2018 10.9 96.7618 10.9867 97.2684 11.16C97.7884 11.32 98.2151 11.5467 98.5484 11.84L98.5084 5.88L102.668 6.2L102.748 22.04H98.5484ZM96.6284 18.36C97.2151 18.36 97.7018 18.1733 98.0884 17.8C98.4751 17.4133 98.6684 16.9267 98.6684 16.34C98.6684 15.7667 98.4751 15.2933 98.0884 14.92C97.7018 14.5467 97.2151 14.36 96.6284 14.36C96.0951 14.36 95.6418 14.5467 95.2684 14.92C94.8951 15.28 94.7084 15.72 94.7084 16.24C94.7084 16.8933 94.8818 17.4133 95.2284 17.8C95.5751 18.1733 96.0418 18.36 96.6284 18.36ZM121.268 22.36L120.388 19.02L115.608 18.8L114.348 22.2L109.948 21.62L116.528 6.8L120.688 6.84L125.568 21.7L121.268 22.36ZM117.128 14.66L119.288 14.84L118.368 11.28L117.128 14.66ZM131.353 22.22C130.286 22.22 129.306 21.96 128.413 21.44C127.533 20.92 126.839 20.2133 126.333 19.32C125.826 18.4267 125.573 17.4467 125.573 16.38C125.573 15.34 125.819 14.4133 126.313 13.6C126.806 12.7733 127.493 12.1333 128.373 11.68C129.266 11.2133 130.273 10.98 131.393 10.98C132.846 10.98 134.019 11.34 134.913 12.06C135.819 12.78 136.386 13.7733 136.613 15.04L132.993 15.7C132.846 15.34 132.619 15.0733 132.313 14.9C132.019 14.7133 131.686 14.62 131.313 14.62C130.779 14.62 130.313 14.8 129.913 15.16C129.513 15.5067 129.313 15.9733 129.313 16.56C129.313 17.16 129.513 17.6467 129.913 18.02C130.326 18.3933 130.806 18.58 131.353 18.58C131.699 18.58 132.019 18.4867 132.313 18.3C132.619 18.1 132.853 17.8267 133.013 17.48L136.533 18.18C136.226 19.42 135.599 20.4067 134.653 21.14C133.719 21.86 132.619 22.22 131.353 22.22ZM145.228 22V21.24C144.548 21.9467 143.541 22.3 142.208 22.3C141.328 22.3 140.521 22.0467 139.788 21.54C139.055 21.02 138.475 20.3267 138.048 19.46C137.621 18.5933 137.408 17.66 137.408 16.66C137.408 15.6733 137.635 14.7533 138.088 13.9C138.555 13.0333 139.161 12.3467 139.908 11.84C140.655 11.32 141.435 11.06 142.248 11.06C143.581 11.06 144.535 11.4133 145.108 12.12V11.38H148.548L149.028 22H145.228ZM143.288 18.56C143.861 18.56 144.315 18.3933 144.648 18.06C144.981 17.7133 145.148 17.2467 145.148 16.66C145.148 16.0867 144.968 15.6333 144.608 15.3C144.261 14.9667 143.808 14.8 143.248 14.8C142.728 14.8 142.288 14.9733 141.928 15.32C141.581 15.6667 141.408 16.1 141.408 16.62C141.408 16.9267 141.488 17.2333 141.648 17.54C141.808 17.8333 142.028 18.08 142.308 18.28C142.601 18.4667 142.928 18.56 143.288 18.56ZM157.494 22.04V21.18C157.12 21.5267 156.647 21.8 156.074 22C155.514 22.2133 154.914 22.32 154.274 22.32C153.46 22.32 152.7 22.0667 151.994 21.56C151.287 21.04 150.727 20.3467 150.314 19.48C149.9 18.6133 149.694 17.6733 149.694 16.66C149.694 15.6467 149.914 14.7 150.354 13.82C150.807 12.94 151.4 12.2333 152.134 11.7C152.88 11.1667 153.68 10.9 154.534 10.9C155.147 10.9 155.707 10.9867 156.214 11.16C156.734 11.32 157.16 11.5467 157.494 11.84L157.454 5.88L161.614 6.2L161.694 22.04H157.494ZM155.574 18.36C156.16 18.36 156.647 18.1733 157.034 17.8C157.42 17.4133 157.614 16.9267 157.614 16.34C157.614 15.7667 157.42 15.2933 157.034 14.92C156.647 14.5467 156.16 14.36 155.574 14.36C155.04 14.36 154.587 14.5467 154.214 14.92C153.84 15.28 153.654 15.72 153.654 16.24C153.654 16.8933 153.827 17.4133 154.174 17.8C154.52 18.1733 154.987 18.36 155.574 18.36ZM168.184 11.02C169.331 11.02 170.318 11.28 171.144 11.8C171.971 12.3067 172.591 13.0267 173.004 13.96C173.418 14.88 173.598 15.94 173.544 17.14L166.244 17.66C166.431 18.0733 166.704 18.4067 167.064 18.66C167.438 18.9 167.858 19.0267 168.324 19.04C168.804 19.04 169.211 18.9533 169.544 18.78C169.878 18.6067 170.118 18.3667 170.264 18.06L173.404 18.86C173.204 19.5267 172.851 20.12 172.344 20.64C171.838 21.16 171.224 21.5667 170.504 21.86C169.798 22.1533 169.064 22.3 168.304 22.3C167.264 22.3 166.304 22.04 165.424 21.52C164.558 20.9867 163.864 20.2733 163.344 19.38C162.838 18.4733 162.584 17.48 162.584 16.4C162.584 15.3467 162.824 14.4133 163.304 13.6C163.798 12.7867 164.464 12.1533 165.304 11.7C166.158 11.2467 167.118 11.02 168.184 11.02ZM168.124 13.7C167.631 13.7 167.211 13.84 166.864 14.12C166.531 14.4 166.291 14.7733 166.144 15.24L169.924 14.9C169.818 14.54 169.598 14.2533 169.264 14.04C168.944 13.8133 168.564 13.7 168.124 13.7ZM187.259 10.94C188.406 10.94 189.319 11.2467 189.999 11.86C190.679 12.46 191.026 13.34 191.039 14.5L190.959 21.78L187.119 22.08L187.079 16C187.079 15.4667 186.973 15.0667 186.759 14.8C186.546 14.5333 186.253 14.4 185.879 14.4C185.519 14.4 185.233 14.5267 185.019 14.78C184.806 15.02 184.666 15.36 184.599 15.8L184.539 22.02L180.699 22.06L180.659 16.2C180.659 15.6667 180.546 15.2667 180.319 15C180.106 14.72 179.819 14.58 179.459 14.58C179.046 14.58 178.733 14.74 178.519 15.06C178.319 15.3667 178.206 15.8 178.179 16.36L178.359 22.06H174.459V11.54L178.019 11.42L178.039 11.98C178.399 11.7133 178.826 11.5067 179.319 11.36C179.813 11.2133 180.319 11.14 180.839 11.14C182.186 11.14 183.186 11.54 183.839 12.34C184.186 11.9133 184.666 11.5733 185.279 11.32C185.906 11.0667 186.566 10.94 187.259 10.94Z" fill="white"/>
<rect x="68" y="27" width="133" height="21" rx="2" fill="#F75725"/>
<path d="M81.4971 34.4893C81.3831 34.667 81.2282 34.9359 81.0322 35.2959C80.0934 37.4196 79.2731 39.2471 78.5713 40.7783C77.8148 42.4326 76.4863 43.2598 74.5859 43.2598C74.3125 43.2598 74.0846 43.1732 73.9023 43C73.7201 42.8268 73.6289 42.6104 73.6289 42.3506C73.6289 41.9951 73.7588 41.749 74.0186 41.6123C74.1644 41.5348 74.4492 41.4733 74.873 41.4277C75.4518 41.3639 75.8848 41.1839 76.1719 40.8877C76.2676 40.792 76.5228 40.4046 76.9375 39.7256C76.2038 38.8187 75.7025 38.0553 75.4336 37.4355C75.2285 36.9707 74.8822 36.3896 74.3945 35.6924C73.8066 34.8584 73.4307 34.2956 73.2666 34.0039C73.1755 33.8398 73.1299 33.6803 73.1299 33.5254C73.1299 33.2747 73.2256 33.0583 73.417 32.876C73.613 32.6937 73.8431 32.6025 74.1074 32.6025C74.4082 32.6025 74.6794 32.7484 74.9209 33.04C75.0941 33.3044 75.2695 33.5687 75.4473 33.833C75.9167 34.5075 76.238 34.9792 76.4111 35.248C76.7529 35.7904 77.0241 36.2917 77.2246 36.752C77.3568 37.0618 77.5732 37.4128 77.874 37.8047C78.1748 37.0892 78.6328 36.0205 79.248 34.5986C79.4212 34.2933 79.6696 33.8307 79.9932 33.2109C80.18 32.8099 80.474 32.6094 80.875 32.6094C81.1393 32.6094 81.3672 32.6982 81.5586 32.876C81.7546 33.0492 81.8525 33.2633 81.8525 33.5186C81.8525 33.7601 81.734 34.0837 81.4971 34.4893ZM89.4541 43.2461C89.1807 43.2461 88.9528 43.1641 88.7705 43C88.5928 42.8314 88.5039 42.6195 88.5039 42.3643C88.5039 42.0179 88.4743 41.5052 88.415 40.8262C88.3558 40.1471 88.3262 39.6367 88.3262 39.2949C88.3262 39.0443 88.3421 38.4951 88.374 37.6475C86.738 37.6338 85.8812 37.627 85.8037 37.627C85.6351 37.627 85.4072 37.6452 85.1201 37.6816C85.1247 37.8867 85.1543 38.3698 85.209 39.1309C85.25 39.7233 85.2705 40.2041 85.2705 40.5732C85.2705 40.7783 85.25 41.0859 85.209 41.4961C85.168 41.9017 85.1475 42.207 85.1475 42.4121C85.1475 42.6673 85.0563 42.8792 84.874 43.0479C84.6917 43.2165 84.4639 43.3008 84.1904 43.3008C83.917 43.3008 83.6891 43.2165 83.5068 43.0479C83.3291 42.8792 83.2402 42.6673 83.2402 42.4121C83.2402 42.207 83.2607 41.9017 83.3018 41.4961C83.3473 41.0859 83.3701 40.7783 83.3701 40.5732C83.3701 40.1813 83.3405 39.5934 83.2812 38.8096C83.2266 38.0257 83.1992 37.4355 83.1992 37.0391C83.1992 36.7383 83.304 36.4876 83.5137 36.2871C83.7233 36.0866 83.9922 35.9863 84.3203 35.9863C84.4844 35.9863 84.7305 35.9635 85.0586 35.918C85.3867 35.8724 85.6351 35.8496 85.8037 35.8496C86.1956 35.8496 86.7858 35.8542 87.5742 35.8633C88.3626 35.8724 88.9528 35.877 89.3447 35.877C89.5999 35.877 89.821 35.9658 90.0078 36.1436C90.1992 36.3213 90.2949 36.5286 90.2949 36.7656C90.2949 37.0436 90.2835 37.4583 90.2607 38.0098C90.238 38.5612 90.2266 38.9736 90.2266 39.2471C90.2266 39.598 90.2562 40.1175 90.3154 40.8057C90.3792 41.4938 90.4111 42.0133 90.4111 42.3643C90.4111 42.6195 90.32 42.8314 90.1377 43C89.96 43.1641 89.7321 43.2461 89.4541 43.2461ZM94.9434 43.4033C94.5514 43.4033 94.139 43.3577 93.7061 43.2666L93.6992 46.0557C93.6992 46.32 93.6104 46.5387 93.4326 46.7119C93.2549 46.8851 93.0293 46.9717 92.7559 46.9717C92.4824 46.9717 92.2568 46.8851 92.0791 46.7119C91.9014 46.5387 91.8125 46.32 91.8125 46.0557C91.8125 45.8415 91.8171 44.9915 91.8262 43.5059C91.8353 42.403 91.8353 41.5029 91.8262 40.8057C91.8125 39.8213 91.7806 38.9736 91.7305 38.2627C91.6621 37.2829 91.6279 36.834 91.6279 36.916C91.6279 36.5378 91.7122 36.2142 91.8809 35.9453C92.0768 35.64 92.3411 35.4873 92.6738 35.4873C92.929 35.4873 93.1432 35.5739 93.3164 35.7471C93.4896 35.9202 93.5762 36.1276 93.5762 36.3691L93.5693 36.4375C93.8747 36.2643 94.18 36.1367 94.4854 36.0547C94.7952 35.9681 95.1051 35.9248 95.415 35.9248C96.4632 35.9248 97.2288 36.3691 97.7119 37.2578C98.0719 37.9277 98.252 38.7959 98.252 39.8623C98.252 40.8604 97.9671 41.6875 97.3975 42.3438C96.7868 43.0501 95.9688 43.4033 94.9434 43.4033ZM95.415 37.75C95.1279 37.75 94.8363 37.8184 94.54 37.9551C94.2438 38.0872 93.9453 38.2878 93.6445 38.5566C93.6992 39.4954 93.7266 40.4365 93.7266 41.3799C94.1322 41.512 94.5378 41.5781 94.9434 41.5781C95.4128 41.5781 95.7728 41.4118 96.0234 41.0791C96.2513 40.7783 96.3652 40.3727 96.3652 39.8623C96.3652 39.2471 96.3379 38.821 96.2832 38.584C96.151 38.028 95.8617 37.75 95.415 37.75ZM102.586 43.4238C101.556 43.4238 100.676 43.139 99.9473 42.5693C99.168 41.9541 98.7783 41.1589 98.7783 40.1836C98.7783 39.0807 99.1383 38.0713 99.8584 37.1553C100.683 36.1025 101.734 35.5762 103.01 35.5762C105.452 35.5762 106.674 36.6562 106.674 38.8164C106.674 39.9193 106.343 40.9219 105.683 41.8242C104.899 42.8906 103.867 43.4238 102.586 43.4238ZM103.01 37.374C102.404 37.374 101.875 37.6657 101.424 38.249C100.973 38.8278 100.747 39.4727 100.747 40.1836C100.747 40.612 100.918 40.9606 101.26 41.2295C101.606 41.4984 102.048 41.6328 102.586 41.6328C103.174 41.6328 103.677 41.3411 104.097 40.7578C104.502 40.1973 104.705 39.5501 104.705 38.8164C104.705 38.2467 104.587 37.8639 104.35 37.668C104.117 37.472 103.671 37.374 103.01 37.374ZM117.078 41.5645H117.153C117.409 41.5645 117.632 41.6556 117.823 41.8379C118.015 42.0156 118.11 42.2253 118.11 42.4668C118.11 42.6855 118.099 42.9977 118.076 43.4033C118.058 43.8135 118.049 44.137 118.049 44.374C118.049 44.6566 117.951 44.8822 117.755 45.0508C117.577 45.2012 117.358 45.2764 117.099 45.2764C116.839 45.2764 116.62 45.2012 116.442 45.0508C116.246 44.8822 116.148 44.6566 116.148 44.374C116.148 44.1325 116.158 43.8021 116.176 43.3828C115.807 43.4284 115.597 43.4512 115.547 43.4512C114.736 43.4512 113.523 43.4307 111.91 43.3896C110.297 43.3486 109.085 43.3281 108.273 43.3281C108.018 43.3281 107.795 43.237 107.604 43.0547C107.417 42.877 107.323 42.6673 107.323 42.4258C107.323 42.3848 107.367 41.904 107.453 40.9834C107.544 40.0127 107.59 38.5133 107.59 36.4854C107.59 36.2347 107.681 36.0228 107.863 35.8496C108.046 35.6764 108.271 35.5898 108.54 35.5898C108.809 35.5898 109.035 35.6764 109.217 35.8496C109.399 36.0228 109.49 36.2347 109.49 36.4854C109.49 38.6318 109.424 40.3317 109.292 41.585C109.547 41.6032 109.827 41.6123 110.133 41.6123C110.265 41.6123 110.459 41.6077 110.714 41.5986C110.969 41.585 111.16 41.5781 111.288 41.5781C111.32 41.2956 111.336 40.9583 111.336 40.5664C111.336 40.2474 111.325 39.7689 111.302 39.1309C111.279 38.4883 111.268 38.0052 111.268 37.6816C111.268 37.194 111.334 36.777 111.466 36.4307C111.653 35.943 111.947 35.6992 112.348 35.6992C112.598 35.6992 112.824 35.7835 113.024 35.9521C113.225 36.1208 113.325 36.3304 113.325 36.5811C113.325 36.6631 113.298 36.8408 113.243 37.1143C113.193 37.3831 113.168 37.5973 113.168 37.7568C113.168 38.0576 113.179 38.5088 113.202 39.1104C113.229 39.7074 113.243 40.154 113.243 40.4502C113.243 40.596 113.234 40.7852 113.216 41.0176C113.198 41.3047 113.186 41.4938 113.182 41.585C113.437 41.6032 113.719 41.6123 114.029 41.6123C114.485 41.6123 114.87 41.5941 115.185 41.5576C115.216 41.2796 115.232 40.9492 115.232 40.5664C115.232 40.2474 115.221 39.7689 115.198 39.1309C115.175 38.4883 115.164 38.0052 115.164 37.6816C115.164 37.194 115.23 36.777 115.362 36.4307C115.549 35.943 115.843 35.6992 116.244 35.6992C116.495 35.6992 116.72 35.7835 116.921 35.9521C117.121 36.1208 117.222 36.3304 117.222 36.5811C117.222 36.6631 117.194 36.8408 117.14 37.1143C117.09 37.3831 117.064 37.5973 117.064 37.7568C117.064 38.0576 117.076 38.5088 117.099 39.1104C117.126 39.7074 117.14 40.154 117.14 40.4502C117.14 40.5915 117.131 40.7783 117.112 41.0107C117.094 41.2979 117.083 41.4824 117.078 41.5645ZM124.563 43.4512C124.354 43.4512 124.021 43.2233 123.565 42.7676C123.146 42.9681 122.777 43.1185 122.458 43.2188C122.139 43.3236 121.868 43.376 121.645 43.376C120.546 43.376 119.721 43.082 119.17 42.4941C118.623 41.9062 118.35 41.0267 118.35 39.8555C118.35 38.7572 118.755 37.8184 119.566 37.0391C120.378 36.2552 121.348 35.8633 122.479 35.8633C122.911 35.8633 123.413 35.9863 123.982 36.2324C124.671 36.5286 125.015 36.8727 125.015 37.2646C125.015 37.4287 124.962 37.5723 124.857 37.6953C124.812 37.8776 124.775 38.1077 124.748 38.3857C124.725 38.6592 124.714 38.9805 124.714 39.3496C124.714 40.2201 124.775 40.8467 124.898 41.2295C124.912 41.2705 125.017 41.5075 125.213 41.9404C125.391 42.3324 125.479 42.5557 125.479 42.6104C125.479 42.8519 125.386 43.0524 125.199 43.2119C125.017 43.3714 124.805 43.4512 124.563 43.4512ZM122.868 38.7617C122.868 38.6159 122.877 38.4495 122.896 38.2627C122.918 38.0713 122.95 37.8594 122.991 37.627C122.9 37.5814 122.818 37.5495 122.745 37.5312C122.677 37.5085 122.618 37.4971 122.567 37.4971C121.948 37.4971 121.405 37.7409 120.94 38.2285C120.476 38.7116 120.243 39.2721 120.243 39.9102C120.243 40.5208 120.353 40.9811 120.571 41.291C120.79 41.5964 121.118 41.749 121.556 41.749C121.838 41.749 122.105 41.7035 122.355 41.6123C122.611 41.5166 122.85 41.3776 123.073 41.1953C122.937 40.1107 122.868 39.2995 122.868 38.7617ZM129.889 43.3145C128.799 43.3145 127.909 43.0547 127.216 42.5352C126.45 41.9609 126.067 41.152 126.067 40.1084C126.067 38.9554 126.37 37.9801 126.977 37.1826C127.651 36.2985 128.56 35.8564 129.704 35.8564C130.497 35.8564 131.156 35.984 131.68 36.2393C132.368 36.5765 132.712 37.1006 132.712 37.8115C132.712 38.3128 132.432 38.7572 131.871 39.1445C131.616 39.3223 131.103 39.582 130.333 39.9238L128.029 40.9424C128.248 41.1794 128.512 41.3571 128.822 41.4756C129.132 41.5941 129.488 41.6533 129.889 41.6533C130.499 41.6533 131.017 41.528 131.44 41.2773C131.819 41.054 132.122 40.9424 132.35 40.9424C132.824 40.9424 133.061 41.1725 133.061 41.6328C133.061 42.1523 132.68 42.5762 131.919 42.9043C131.281 43.1777 130.604 43.3145 129.889 43.3145ZM129.704 37.5107C129.28 37.5107 128.918 37.652 128.617 37.9346C128.316 38.2171 128.075 38.641 127.893 39.2061C128.408 38.9827 128.92 38.7617 129.431 38.543C130.046 38.265 130.536 38.0075 130.9 37.7705C130.595 37.5973 130.196 37.5107 129.704 37.5107ZM136.362 39.5342C136.203 39.9808 135.979 40.653 135.692 41.5508C135.606 41.929 135.521 42.3073 135.439 42.6855C135.275 43.1048 134.97 43.3145 134.523 43.3145C134.245 43.3145 134.022 43.2393 133.854 43.0889C133.689 42.9385 133.607 42.7585 133.607 42.5488C133.607 42.0384 133.744 41.4232 134.018 40.7031C134.423 39.6185 134.64 39.0215 134.667 38.9121C134.785 38.429 134.904 37.946 135.022 37.4629C135.2 36.8158 135.398 36.376 135.617 36.1436C135.84 35.9111 136.114 35.7949 136.438 35.7949C136.989 35.7949 137.381 36.2324 137.613 37.1074C137.627 37.1621 137.688 37.4401 137.798 37.9414C137.957 38.6934 138.192 39.4977 138.502 40.3545C139.135 39.042 139.571 37.9368 139.808 37.0391C140.04 36.1641 140.452 35.7266 141.045 35.7266C141.487 35.7266 141.817 35.9749 142.036 36.4717C142.136 36.7041 142.239 37.1234 142.344 37.7295C142.572 39.0374 142.856 40.1517 143.198 41.0723C143.549 42.0293 143.725 42.5602 143.725 42.665C143.725 42.8975 143.615 43.082 143.396 43.2188C143.214 43.3372 143.014 43.3965 142.795 43.3965C142.367 43.3965 142.045 43.1618 141.831 42.6924C141.703 42.2913 141.576 41.8926 141.448 41.4961C141.266 40.9629 141.077 40.2383 140.881 39.3223C140.717 39.696 140.455 40.277 140.095 41.0654C139.972 41.3571 139.849 41.6465 139.726 41.9336C139.58 42.2708 139.429 42.5465 139.274 42.7607C139.051 43.0661 138.746 43.2188 138.358 43.2188C137.985 43.2188 137.698 43.0547 137.497 42.7266C137.465 42.6719 137.34 42.3597 137.121 41.79C136.843 41.0791 136.59 40.3271 136.362 39.5342ZM153.028 43.3213C152.418 43.3213 151.866 43.2301 151.374 43.0479C150.713 42.8018 150.383 42.4395 150.383 41.9609C150.383 41.7786 150.474 41.5964 150.656 41.4141C150.843 41.2272 151.039 41.1338 151.244 41.1338C151.458 41.1338 151.752 41.2113 152.126 41.3662C152.504 41.5212 152.805 41.5986 153.028 41.5986C153.201 41.5986 153.372 41.5212 153.541 41.3662C153.71 41.2067 153.794 41.0449 153.794 40.8809C153.794 40.6257 153.614 40.4365 153.254 40.3135C152.912 40.2178 152.573 40.1243 152.235 40.0332C151.871 39.9056 151.688 39.7119 151.688 39.4521C151.688 39.1195 151.823 38.8893 152.092 38.7617C152.242 38.6842 152.518 38.6227 152.919 38.5771C153.211 38.5452 153.409 38.4951 153.514 38.4268C153.655 38.3311 153.726 38.1579 153.726 37.9072C153.726 37.57 153.377 37.4014 152.68 37.4014C152.538 37.4014 152.342 37.488 152.092 37.6611C151.841 37.8343 151.606 37.9209 151.388 37.9209C151.146 37.9209 150.932 37.848 150.745 37.7021C150.545 37.5472 150.444 37.349 150.444 37.1074C150.444 36.7064 150.743 36.3555 151.34 36.0547C151.841 35.804 152.288 35.6787 152.68 35.6787C153.377 35.6787 154.004 35.8291 154.56 36.1299C155.252 36.5036 155.599 37.0231 155.599 37.6885C155.599 38.3721 155.378 38.9372 154.936 39.3838C155.4 39.9124 155.633 40.4115 155.633 40.8809C155.633 41.6191 155.396 42.2116 154.922 42.6582C154.448 43.1003 153.817 43.3213 153.028 43.3213ZM162.414 43.2529C162.141 43.2529 161.913 43.1686 161.73 43C161.548 42.8314 161.457 42.6195 161.457 42.3643C161.457 41.9678 161.448 41.2568 161.43 40.2314C161.343 40.2314 161.268 40.2314 161.204 40.2314C160.224 40.2314 159.274 40.3294 158.354 40.5254C158.349 40.7031 158.324 41.0244 158.278 41.4893C158.242 41.8857 158.224 42.2139 158.224 42.4736C158.224 42.7288 158.132 42.9408 157.95 43.1094C157.772 43.278 157.547 43.3623 157.273 43.3623C157 43.3623 156.772 43.278 156.59 43.1094C156.412 42.9408 156.323 42.7266 156.323 42.4668C156.323 42.3118 156.344 42.1022 156.385 41.8379C156.43 41.569 156.453 41.3571 156.453 41.2021C156.453 40.9469 156.446 40.5641 156.433 40.0537C156.419 39.5387 156.412 39.1536 156.412 38.8984C156.412 38.6296 156.412 38.2331 156.412 37.709C156.417 37.1849 156.419 36.7884 156.419 36.5195C156.419 36.2643 156.508 36.0524 156.686 35.8838C156.868 35.7152 157.096 35.6309 157.369 35.6309C157.643 35.6309 157.87 35.7152 158.053 35.8838C158.235 36.0524 158.326 36.2643 158.326 36.5195C158.326 36.8112 158.331 37.1758 158.34 37.6133C158.354 38.2194 158.36 38.5794 158.36 38.6934C159.322 38.5111 160.336 38.4313 161.402 38.4541V38.3037C161.402 38.0713 161.411 37.7386 161.43 37.3057C161.448 36.8727 161.457 36.5446 161.457 36.3213C161.457 36.0661 161.548 35.8542 161.73 35.6855C161.913 35.5169 162.141 35.4326 162.414 35.4326C162.688 35.4326 162.913 35.5169 163.091 35.6855C163.273 35.8542 163.364 36.0661 163.364 36.3213C163.364 36.5492 163.355 36.8796 163.337 37.3125C163.319 37.7454 163.31 38.0758 163.31 38.3037C163.31 38.7686 163.319 39.4453 163.337 40.334C163.355 41.2227 163.364 41.8994 163.364 42.3643C163.364 42.6195 163.273 42.8314 163.091 43C162.913 43.1686 162.688 43.2529 162.414 43.2529ZM170.515 43.4512C170.305 43.4512 169.972 43.2233 169.517 42.7676C169.097 42.9681 168.728 43.1185 168.409 43.2188C168.09 43.3236 167.819 43.376 167.596 43.376C166.497 43.376 165.673 43.082 165.121 42.4941C164.574 41.9062 164.301 41.0267 164.301 39.8555C164.301 38.7572 164.706 37.8184 165.518 37.0391C166.329 36.2552 167.299 35.8633 168.43 35.8633C168.863 35.8633 169.364 35.9863 169.934 36.2324C170.622 36.5286 170.966 36.8727 170.966 37.2646C170.966 37.4287 170.913 37.5723 170.809 37.6953C170.763 37.8776 170.727 38.1077 170.699 38.3857C170.676 38.6592 170.665 38.9805 170.665 39.3496C170.665 40.2201 170.727 40.8467 170.85 41.2295C170.863 41.2705 170.968 41.5075 171.164 41.9404C171.342 42.3324 171.431 42.5557 171.431 42.6104C171.431 42.8519 171.337 43.0524 171.15 43.2119C170.968 43.3714 170.756 43.4512 170.515 43.4512ZM168.819 38.7617C168.819 38.6159 168.828 38.4495 168.847 38.2627C168.869 38.0713 168.901 37.8594 168.942 37.627C168.851 37.5814 168.769 37.5495 168.696 37.5312C168.628 37.5085 168.569 37.4971 168.519 37.4971C167.899 37.4971 167.356 37.7409 166.892 38.2285C166.427 38.7116 166.194 39.2721 166.194 39.9102C166.194 40.5208 166.304 40.9811 166.522 41.291C166.741 41.5964 167.069 41.749 167.507 41.749C167.789 41.749 168.056 41.7035 168.307 41.6123C168.562 41.5166 168.801 41.3776 169.024 41.1953C168.888 40.1107 168.819 39.2995 168.819 38.7617ZM178.027 43.2529C177.754 43.2529 177.526 43.1686 177.344 43C177.161 42.8314 177.07 42.6195 177.07 42.3643C177.07 41.9678 177.061 41.2568 177.043 40.2314C176.956 40.2314 176.881 40.2314 176.817 40.2314C175.838 40.2314 174.887 40.3294 173.967 40.5254C173.962 40.7031 173.937 41.0244 173.892 41.4893C173.855 41.8857 173.837 42.2139 173.837 42.4736C173.837 42.7288 173.746 42.9408 173.563 43.1094C173.386 43.278 173.16 43.3623 172.887 43.3623C172.613 43.3623 172.385 43.278 172.203 43.1094C172.025 42.9408 171.937 42.7266 171.937 42.4668C171.937 42.3118 171.957 42.1022 171.998 41.8379C172.044 41.569 172.066 41.3571 172.066 41.2021C172.066 40.9469 172.06 40.5641 172.046 40.0537C172.032 39.5387 172.025 39.1536 172.025 38.8984C172.025 38.6296 172.025 38.2331 172.025 37.709C172.03 37.1849 172.032 36.7884 172.032 36.5195C172.032 36.2643 172.121 36.0524 172.299 35.8838C172.481 35.7152 172.709 35.6309 172.982 35.6309C173.256 35.6309 173.484 35.7152 173.666 35.8838C173.848 36.0524 173.939 36.2643 173.939 36.5195C173.939 36.8112 173.944 37.1758 173.953 37.6133C173.967 38.2194 173.974 38.5794 173.974 38.6934C174.935 38.5111 175.949 38.4313 177.016 38.4541V38.3037C177.016 38.0713 177.025 37.7386 177.043 37.3057C177.061 36.8727 177.07 36.5446 177.07 36.3213C177.07 36.0661 177.161 35.8542 177.344 35.6855C177.526 35.5169 177.754 35.4326 178.027 35.4326C178.301 35.4326 178.526 35.5169 178.704 35.6855C178.886 35.8542 178.978 36.0661 178.978 36.3213C178.978 36.5492 178.968 36.8796 178.95 37.3125C178.932 37.7454 178.923 38.0758 178.923 38.3037C178.923 38.7686 178.932 39.4453 178.95 40.334C178.968 41.2227 178.978 41.8994 178.978 42.3643C178.978 42.6195 178.886 42.8314 178.704 43C178.526 43.1686 178.301 43.2529 178.027 43.2529ZM187.652 42.5078C187.652 42.7585 187.561 42.9681 187.379 43.1367C187.197 43.3099 186.971 43.3965 186.702 43.3965C186.429 43.3965 186.201 43.3099 186.019 43.1367C185.836 42.9681 185.745 42.7585 185.745 42.5078C185.745 42.2344 185.759 41.8242 185.786 41.2773C185.813 40.7259 185.827 40.3135 185.827 40.04C185.827 39.7894 185.816 39.5251 185.793 39.2471C184.945 40.391 184.184 41.2318 183.51 41.7695C182.899 42.2526 182.446 42.6377 182.149 42.9248C181.853 43.2074 181.534 43.3486 181.192 43.3486C180.937 43.3486 180.709 43.2848 180.509 43.1572C180.276 43.0023 180.16 42.7858 180.16 42.5078C180.16 41.3001 180.137 40.04 180.092 38.7275C180.042 37.3649 180.017 36.6973 180.017 36.7246C180.017 36.4648 180.105 36.2507 180.283 36.082C180.461 35.9089 180.691 35.8223 180.974 35.8223C181.484 35.8223 181.796 36.0866 181.91 36.6152C181.928 36.6882 181.949 37.1302 181.972 37.9414L182.04 40.5459C182.628 40.0173 183.255 39.3633 183.92 38.584C184.075 38.4017 184.642 37.7021 185.622 36.4854C185.946 36.0798 186.306 35.877 186.702 35.877C186.971 35.877 187.197 35.9635 187.379 36.1367C187.561 36.3053 187.652 36.515 187.652 36.7656C187.652 37.2396 187.661 37.9505 187.68 38.8984C187.698 39.8464 187.707 40.5573 187.707 41.0312C187.707 41.1953 187.698 41.4414 187.68 41.7695C187.661 42.0977 187.652 42.3438 187.652 42.5078ZM193.969 43.2461C193.7 43.2461 193.47 43.1641 193.278 43C193.073 42.8314 192.971 42.6172 192.971 42.3574C192.971 42.2298 192.962 41.8333 192.943 41.168C192.228 41.4323 191.28 42.043 190.1 43C189.89 43.1686 189.66 43.2529 189.409 43.2529C189.145 43.2529 188.91 43.1686 188.705 43C188.505 42.8268 188.404 42.6149 188.404 42.3643C188.404 41.9359 189.056 41.3389 190.359 40.5732C189.398 40.0993 188.917 39.516 188.917 38.8232C188.917 37.766 189.664 36.9069 191.159 36.2461C191.774 35.9727 192.629 35.8359 193.723 35.8359C194.042 35.8359 194.306 35.943 194.516 36.1572C194.73 36.3669 194.837 36.6198 194.837 36.916C194.837 37.5176 194.857 38.4245 194.898 39.6367C194.944 40.8444 194.967 41.7513 194.967 42.3574C194.967 42.6126 194.867 42.8245 194.666 42.9932C194.465 43.1618 194.233 43.2461 193.969 43.2461ZM192.834 37.5518C192.479 37.5745 192.096 37.6999 191.686 37.9277C191.212 38.1921 190.956 38.4792 190.92 38.7891C191.102 39.099 191.392 39.304 191.788 39.4043C192.039 39.4727 192.41 39.5046 192.902 39.5C192.88 39.0762 192.857 38.4268 192.834 37.5518Z" fill="white"/>
</svg>
