<svg width="64" height="47" viewBox="0 0 64 47" fill="none" xmlns="http://www.w3.org/2000/svg">
<path fill-rule="evenodd" clip-rule="evenodd" d="M0 2C0 0.89543 0.895431 0 2 0H10C11.1046 0 12 0.89543 12 2V13H0V2ZM0 14.5H12V16.5H0V14.5ZM0 18V45C0 46.1046 0.895431 47 2 47H10C11.1046 47 12 46.1046 12 45V18H0Z" fill="white"/>
<path fill-rule="evenodd" clip-rule="evenodd" d="M28 2C28 0.89543 28.8954 0 30 0H38C39.1046 0 40 0.89543 40 2V13H28V2ZM28 14.5H40V16.5H28V14.5ZM28 18V45C28 46.1046 28.8954 47 30 47H38C39.1046 47 40 46.1046 40 45V18H28Z" fill="white"/>
<path fill-rule="evenodd" clip-rule="evenodd" d="M16 6C14.8954 6 14 6.89543 14 8V13H26V8C26 6.89543 25.1046 6 24 6H16ZM26 14.5H14V16.5H26V14.5ZM14 45V18H26V45C26 46.1046 25.1046 47 24 47H16C14.8954 47 14 46.1046 14 45ZM19.15 30.37L23.588 30.244V27.36L16.504 27.5L16.42 38.014H19.304L19.234 34.724L22.594 34.682L22.37 31.77L19.178 31.812L19.15 30.37Z" fill="white"/>
<path fill-rule="evenodd" clip-rule="evenodd" d="M54.5709 5.05538C53.4985 4.79067 52.4105 5.4444 52.1407 6.51553L43.061 42.5695C42.7912 43.6406 43.4419 44.7236 44.5143 44.9883L52.4306 46.9424C53.503 47.2071 54.591 46.5533 54.8608 45.4822L61.4855 19.177L61.4865 19.1772L61.8541 17.717L61.8532 17.7167L62.3439 15.7681L62.3446 15.7682L62.7121 14.308L62.7117 14.3078L63.9406 9.42823C64.2103 8.35711 63.5596 7.2742 62.4873 7.00949L54.5709 5.05538ZM62.7117 14.3078L50.913 11.3939L50.5455 12.8542L62.3439 15.7681L62.7117 14.3078ZM61.8532 17.7167L50.055 14.8029L49.6874 16.2632L61.4855 19.177L61.8532 17.7167ZM53.0105 34.012L53.0339 36.082L55.6353 36.3166L54.969 26.9682L52.5517 26.3465L46.5484 34.0229L49.0264 34.9934L50.2583 33.1964L53.0105 34.012ZM52.9819 31.4216L51.7501 31.0062L52.9674 29.2179L52.9819 31.4216Z" fill="white"/>
</svg>
