<svg width="133" height="47" viewBox="0 0 133 47" fill="none" xmlns="http://www.w3.org/2000/svg">
<path d="M10.84 7.92L4.5 8.1L4.54 10.16L9.1 10.1L9.42 14.26L4.62 14.32L4.72 19.02H0.6L0.72 4L10.84 3.8V7.92ZM16.1805 8.02C17.3271 8.02 18.3138 8.28 19.1405 8.8C19.9671 9.30667 20.5871 10.0267 21.0005 10.96C21.4138 11.88 21.5938 12.94 21.5405 14.14L14.2405 14.66C14.4271 15.0733 14.7005 15.4067 15.0605 15.66C15.4338 15.9 15.8538 16.0267 16.3205 16.04C16.8005 16.04 17.2071 15.9533 17.5405 15.78C17.8738 15.6067 18.1138 15.3667 18.2605 15.06L21.4005 15.86C21.2005 16.5267 20.8471 17.12 20.3405 17.64C19.8338 18.16 19.2205 18.5667 18.5005 18.86C17.7938 19.1533 17.0605 19.3 16.3005 19.3C15.2605 19.3 14.3005 19.04 13.4205 18.52C12.5538 17.9867 11.8605 17.2733 11.3405 16.38C10.8338 15.4733 10.5805 14.48 10.5805 13.4C10.5805 12.3467 10.8205 11.4133 11.3005 10.6C11.7938 9.78667 12.4605 9.15333 13.3005 8.7C14.1538 8.24667 15.1138 8.02 16.1805 8.02ZM16.1205 10.7C15.6271 10.7 15.2071 10.84 14.8605 11.12C14.5271 11.4 14.2871 11.7733 14.1405 12.24L17.9205 11.9C17.8138 11.54 17.5938 11.2533 17.2605 11.04C16.9405 10.8133 16.5605 10.7 16.1205 10.7ZM30.5484 19.04V18.18C30.1751 18.5267 29.7018 18.8 29.1284 19C28.5684 19.2133 27.9684 19.32 27.3284 19.32C26.5151 19.32 25.7551 19.0667 25.0484 18.56C24.3418 18.04 23.7818 17.3467 23.3684 16.48C22.9551 15.6133 22.7484 14.6733 22.7484 13.66C22.7484 12.6467 22.9684 11.7 23.4084 10.82C23.8618 9.94 24.4551 9.23333 25.1884 8.7C25.9351 8.16667 26.7351 7.9 27.5884 7.9C28.2018 7.9 28.7618 7.98667 29.2684 8.16C29.7884 8.32 30.2151 8.54667 30.5484 8.84L30.5084 2.88L34.6684 3.2L34.7484 19.04H30.5484ZM28.6284 15.36C29.2151 15.36 29.7018 15.1733 30.0884 14.8C30.4751 14.4133 30.6684 13.9267 30.6684 13.34C30.6684 12.7667 30.4751 12.2933 30.0884 11.92C29.7018 11.5467 29.2151 11.36 28.6284 11.36C28.0951 11.36 27.6418 11.5467 27.2684 11.92C26.8951 12.28 26.7084 12.72 26.7084 13.24C26.7084 13.8933 26.8818 14.4133 27.2284 14.8C27.5751 15.1733 28.0418 15.36 28.6284 15.36ZM53.2677 19.36L52.3877 16.02L47.6077 15.8L46.3477 19.2L41.9477 18.62L48.5277 3.8L52.6877 3.84L57.5677 18.7L53.2677 19.36ZM49.1277 11.66L51.2877 11.84L50.3677 8.28L49.1277 11.66ZM63.3527 19.22C62.286 19.22 61.306 18.96 60.4127 18.44C59.5327 17.92 58.8393 17.2133 58.3327 16.32C57.826 15.4267 57.5727 14.4467 57.5727 13.38C57.5727 12.34 57.8193 11.4133 58.3127 10.6C58.806 9.77333 59.4927 9.13333 60.3727 8.68C61.266 8.21333 62.2727 7.98 63.3927 7.98C64.846 7.98 66.0193 8.34 66.9127 9.06C67.8193 9.78 68.386 10.7733 68.6127 12.04L64.9927 12.7C64.846 12.34 64.6193 12.0733 64.3127 11.9C64.0193 11.7133 63.686 11.62 63.3127 11.62C62.7793 11.62 62.3127 11.8 61.9127 12.16C61.5127 12.5067 61.3127 12.9733 61.3127 13.56C61.3127 14.16 61.5127 14.6467 61.9127 15.02C62.326 15.3933 62.806 15.58 63.3527 15.58C63.6993 15.58 64.0193 15.4867 64.3127 15.3C64.6193 15.1 64.8527 14.8267 65.0127 14.48L68.5327 15.18C68.226 16.42 67.5993 17.4067 66.6527 18.14C65.7193 18.86 64.6193 19.22 63.3527 19.22ZM77.2281 19V18.24C76.5481 18.9467 75.5415 19.3 74.2081 19.3C73.3281 19.3 72.5215 19.0467 71.7881 18.54C71.0548 18.02 70.4748 17.3267 70.0481 16.46C69.6215 15.5933 69.4081 14.66 69.4081 13.66C69.4081 12.6733 69.6348 11.7533 70.0881 10.9C70.5548 10.0333 71.1615 9.34667 71.9081 8.84C72.6548 8.32 73.4348 8.06 74.2481 8.06C75.5815 8.06 76.5348 8.41333 77.1081 9.12V8.38H80.5481L81.0281 19H77.2281ZM75.2881 15.56C75.8615 15.56 76.3148 15.3933 76.6481 15.06C76.9815 14.7133 77.1481 14.2467 77.1481 13.66C77.1481 13.0867 76.9681 12.6333 76.6081 12.3C76.2615 11.9667 75.8081 11.8 75.2481 11.8C74.7281 11.8 74.2881 11.9733 73.9281 12.32C73.5815 12.6667 73.4081 13.1 73.4081 13.62C73.4081 13.9267 73.4881 14.2333 73.6481 14.54C73.8081 14.8333 74.0281 15.08 74.3081 15.28C74.6015 15.4667 74.9281 15.56 75.2881 15.56ZM89.4938 19.04V18.18C89.1204 18.5267 88.6471 18.8 88.0738 19C87.5138 19.2133 86.9138 19.32 86.2738 19.32C85.4604 19.32 84.7004 19.0667 83.9938 18.56C83.2871 18.04 82.7271 17.3467 82.3138 16.48C81.9004 15.6133 81.6938 14.6733 81.6938 13.66C81.6938 12.6467 81.9138 11.7 82.3538 10.82C82.8071 9.94 83.4004 9.23333 84.1338 8.7C84.8804 8.16667 85.6804 7.9 86.5338 7.9C87.1471 7.9 87.7071 7.98667 88.2138 8.16C88.7338 8.32 89.1604 8.54667 89.4938 8.84L89.4538 2.88L93.6138 3.2L93.6938 19.04H89.4938ZM87.5738 15.36C88.1604 15.36 88.6471 15.1733 89.0338 14.8C89.4204 14.4133 89.6138 13.9267 89.6138 13.34C89.6138 12.7667 89.4204 12.2933 89.0338 11.92C88.6471 11.5467 88.1604 11.36 87.5738 11.36C87.0404 11.36 86.5871 11.5467 86.2138 11.92C85.8404 12.28 85.6538 12.72 85.6538 13.24C85.6538 13.8933 85.8271 14.4133 86.1738 14.8C86.5204 15.1733 86.9871 15.36 87.5738 15.36ZM100.184 8.02C101.331 8.02 102.318 8.28 103.144 8.8C103.971 9.30667 104.591 10.0267 105.004 10.96C105.418 11.88 105.598 12.94 105.544 14.14L98.2444 14.66C98.431 15.0733 98.7044 15.4067 99.0644 15.66C99.4377 15.9 99.8577 16.0267 100.324 16.04C100.804 16.04 101.211 15.9533 101.544 15.78C101.878 15.6067 102.118 15.3667 102.264 15.06L105.404 15.86C105.204 16.5267 104.851 17.12 104.344 17.64C103.838 18.16 103.224 18.5667 102.504 18.86C101.798 19.1533 101.064 19.3 100.304 19.3C99.2644 19.3 98.3044 19.04 97.4244 18.52C96.5577 17.9867 95.8644 17.2733 95.3444 16.38C94.8377 15.4733 94.5844 14.48 94.5844 13.4C94.5844 12.3467 94.8244 11.4133 95.3044 10.6C95.7977 9.78667 96.4644 9.15333 97.3044 8.7C98.1577 8.24667 99.1177 8.02 100.184 8.02ZM100.124 10.7C99.631 10.7 99.211 10.84 98.8644 11.12C98.531 11.4 98.291 11.7733 98.1444 12.24L101.924 11.9C101.818 11.54 101.598 11.2533 101.264 11.04C100.944 10.8133 100.564 10.7 100.124 10.7ZM119.259 7.94C120.406 7.94 121.319 8.24667 121.999 8.86C122.679 9.46 123.026 10.34 123.039 11.5L122.959 18.78L119.119 19.08L119.079 13C119.079 12.4667 118.973 12.0667 118.759 11.8C118.546 11.5333 118.253 11.4 117.879 11.4C117.519 11.4 117.233 11.5267 117.019 11.78C116.806 12.02 116.666 12.36 116.599 12.8L116.539 19.02L112.699 19.06L112.659 13.2C112.659 12.6667 112.546 12.2667 112.319 12C112.106 11.72 111.819 11.58 111.459 11.58C111.046 11.58 110.733 11.74 110.519 12.06C110.319 12.3667 110.206 12.8 110.179 13.36L110.359 19.06H106.459V8.54L110.019 8.42L110.039 8.98C110.399 8.71333 110.826 8.50667 111.319 8.36C111.813 8.21333 112.319 8.14 112.839 8.14C114.186 8.14 115.186 8.54 115.839 9.34C116.186 8.91333 116.666 8.57333 117.279 8.32C117.906 8.06667 118.566 7.94 119.259 7.94Z" fill="white"/>
<rect y="25" width="133" height="22" rx="2" fill="#F75725"/>
<path d="M13.4971 32.4893C13.3831 32.667 13.2282 32.9359 13.0322 33.2959C12.0934 35.4196 11.2731 37.2471 10.5713 38.7783C9.81478 40.4326 8.48633 41.2598 6.58594 41.2598C6.3125 41.2598 6.08464 41.1732 5.90234 41C5.72005 40.8268 5.62891 40.6104 5.62891 40.3506C5.62891 39.9951 5.75879 39.749 6.01855 39.6123C6.16439 39.5348 6.44922 39.4733 6.87305 39.4277C7.45182 39.3639 7.88477 39.1839 8.17188 38.8877C8.26758 38.792 8.52279 38.4046 8.9375 37.7256C8.20378 36.8187 7.70247 36.0553 7.43359 35.4355C7.22852 34.9707 6.88216 34.3896 6.39453 33.6924C5.80664 32.8584 5.43066 32.2956 5.2666 32.0039C5.17546 31.8398 5.12988 31.6803 5.12988 31.5254C5.12988 31.2747 5.22559 31.0583 5.41699 30.876C5.61296 30.6937 5.8431 30.6025 6.10742 30.6025C6.4082 30.6025 6.67936 30.7484 6.9209 31.04C7.09408 31.3044 7.26953 31.5687 7.44727 31.833C7.91667 32.5075 8.23796 32.9792 8.41113 33.248C8.75293 33.7904 9.02409 34.2917 9.22461 34.752C9.35677 35.0618 9.57324 35.4128 9.87402 35.8047C10.1748 35.0892 10.6328 34.0205 11.248 32.5986C11.4212 32.2933 11.6696 31.8307 11.9932 31.2109C12.18 30.8099 12.474 30.6094 12.875 30.6094C13.1393 30.6094 13.3672 30.6982 13.5586 30.876C13.7546 31.0492 13.8525 31.2633 13.8525 31.5186C13.8525 31.7601 13.734 32.0837 13.4971 32.4893ZM21.4541 41.2461C21.1807 41.2461 20.9528 41.1641 20.7705 41C20.5928 40.8314 20.5039 40.6195 20.5039 40.3643C20.5039 40.0179 20.4743 39.5052 20.415 38.8262C20.3558 38.1471 20.3262 37.6367 20.3262 37.2949C20.3262 37.0443 20.3421 36.4951 20.374 35.6475C18.738 35.6338 17.8812 35.627 17.8037 35.627C17.6351 35.627 17.4072 35.6452 17.1201 35.6816C17.1247 35.8867 17.1543 36.3698 17.209 37.1309C17.25 37.7233 17.2705 38.2041 17.2705 38.5732C17.2705 38.7783 17.25 39.0859 17.209 39.4961C17.168 39.9017 17.1475 40.207 17.1475 40.4121C17.1475 40.6673 17.0563 40.8792 16.874 41.0479C16.6917 41.2165 16.4639 41.3008 16.1904 41.3008C15.917 41.3008 15.6891 41.2165 15.5068 41.0479C15.3291 40.8792 15.2402 40.6673 15.2402 40.4121C15.2402 40.207 15.2607 39.9017 15.3018 39.4961C15.3473 39.0859 15.3701 38.7783 15.3701 38.5732C15.3701 38.1813 15.3405 37.5934 15.2812 36.8096C15.2266 36.0257 15.1992 35.4355 15.1992 35.0391C15.1992 34.7383 15.304 34.4876 15.5137 34.2871C15.7233 34.0866 15.9922 33.9863 16.3203 33.9863C16.4844 33.9863 16.7305 33.9635 17.0586 33.918C17.3867 33.8724 17.6351 33.8496 17.8037 33.8496C18.1956 33.8496 18.7858 33.8542 19.5742 33.8633C20.3626 33.8724 20.9528 33.877 21.3447 33.877C21.5999 33.877 21.821 33.9658 22.0078 34.1436C22.1992 34.3213 22.2949 34.5286 22.2949 34.7656C22.2949 35.0436 22.2835 35.4583 22.2607 36.0098C22.238 36.5612 22.2266 36.9736 22.2266 37.2471C22.2266 37.598 22.2562 38.1175 22.3154 38.8057C22.3792 39.4938 22.4111 40.0133 22.4111 40.3643C22.4111 40.6195 22.32 40.8314 22.1377 41C21.96 41.1641 21.7321 41.2461 21.4541 41.2461ZM26.9434 41.4033C26.5514 41.4033 26.139 41.3577 25.7061 41.2666L25.6992 44.0557C25.6992 44.32 25.6104 44.5387 25.4326 44.7119C25.2549 44.8851 25.0293 44.9717 24.7559 44.9717C24.4824 44.9717 24.2568 44.8851 24.0791 44.7119C23.9014 44.5387 23.8125 44.32 23.8125 44.0557C23.8125 43.8415 23.8171 42.9915 23.8262 41.5059C23.8353 40.403 23.8353 39.5029 23.8262 38.8057C23.8125 37.8213 23.7806 36.9736 23.7305 36.2627C23.6621 35.2829 23.6279 34.834 23.6279 34.916C23.6279 34.5378 23.7122 34.2142 23.8809 33.9453C24.0768 33.64 24.3411 33.4873 24.6738 33.4873C24.929 33.4873 25.1432 33.5739 25.3164 33.7471C25.4896 33.9202 25.5762 34.1276 25.5762 34.3691L25.5693 34.4375C25.8747 34.2643 26.18 34.1367 26.4854 34.0547C26.7952 33.9681 27.1051 33.9248 27.415 33.9248C28.4632 33.9248 29.2288 34.3691 29.7119 35.2578C30.0719 35.9277 30.252 36.7959 30.252 37.8623C30.252 38.8604 29.9671 39.6875 29.3975 40.3438C28.7868 41.0501 27.9688 41.4033 26.9434 41.4033ZM27.415 35.75C27.1279 35.75 26.8363 35.8184 26.54 35.9551C26.2438 36.0872 25.9453 36.2878 25.6445 36.5566C25.6992 37.4954 25.7266 38.4365 25.7266 39.3799C26.1322 39.512 26.5378 39.5781 26.9434 39.5781C27.4128 39.5781 27.7728 39.4118 28.0234 39.0791C28.2513 38.7783 28.3652 38.3727 28.3652 37.8623C28.3652 37.2471 28.3379 36.821 28.2832 36.584C28.151 36.028 27.8617 35.75 27.415 35.75ZM34.5859 41.4238C33.556 41.4238 32.6764 41.139 31.9473 40.5693C31.168 39.9541 30.7783 39.1589 30.7783 38.1836C30.7783 37.0807 31.1383 36.0713 31.8584 35.1553C32.6833 34.1025 33.7337 33.5762 35.0098 33.5762C37.4525 33.5762 38.6738 34.6562 38.6738 36.8164C38.6738 37.9193 38.3434 38.9219 37.6826 39.8242C36.8988 40.8906 35.8665 41.4238 34.5859 41.4238ZM35.0098 35.374C34.4036 35.374 33.875 35.6657 33.4238 36.249C32.9727 36.8278 32.7471 37.4727 32.7471 38.1836C32.7471 38.612 32.918 38.9606 33.2598 39.2295C33.6061 39.4984 34.0482 39.6328 34.5859 39.6328C35.1738 39.6328 35.6774 39.3411 36.0967 38.7578C36.5023 38.1973 36.7051 37.5501 36.7051 36.8164C36.7051 36.2467 36.5866 35.8639 36.3496 35.668C36.1172 35.472 35.6706 35.374 35.0098 35.374ZM49.0781 39.5645H49.1533C49.4085 39.5645 49.6318 39.6556 49.8232 39.8379C50.0146 40.0156 50.1104 40.2253 50.1104 40.4668C50.1104 40.6855 50.099 40.9977 50.0762 41.4033C50.0579 41.8135 50.0488 42.137 50.0488 42.374C50.0488 42.6566 49.9508 42.8822 49.7549 43.0508C49.5771 43.2012 49.3584 43.2764 49.0986 43.2764C48.8389 43.2764 48.6201 43.2012 48.4424 43.0508C48.2464 42.8822 48.1484 42.6566 48.1484 42.374C48.1484 42.1325 48.1576 41.8021 48.1758 41.3828C47.8066 41.4284 47.597 41.4512 47.5469 41.4512C46.7357 41.4512 45.5234 41.4307 43.9102 41.3896C42.2969 41.3486 41.0846 41.3281 40.2734 41.3281C40.0182 41.3281 39.7949 41.237 39.6035 41.0547C39.4167 40.877 39.3232 40.6673 39.3232 40.4258C39.3232 40.3848 39.3665 39.904 39.4531 38.9834C39.5443 38.0127 39.5898 36.5133 39.5898 34.4854C39.5898 34.2347 39.681 34.0228 39.8633 33.8496C40.0456 33.6764 40.2712 33.5898 40.54 33.5898C40.8089 33.5898 41.0345 33.6764 41.2168 33.8496C41.3991 34.0228 41.4902 34.2347 41.4902 34.4854C41.4902 36.6318 41.4242 38.3317 41.292 39.585C41.5472 39.6032 41.8275 39.6123 42.1328 39.6123C42.265 39.6123 42.4587 39.6077 42.7139 39.5986C42.9691 39.585 43.1605 39.5781 43.2881 39.5781C43.32 39.2956 43.3359 38.9583 43.3359 38.5664C43.3359 38.2474 43.3245 37.7689 43.3018 37.1309C43.279 36.4883 43.2676 36.0052 43.2676 35.6816C43.2676 35.194 43.3337 34.777 43.4658 34.4307C43.6527 33.943 43.9466 33.6992 44.3477 33.6992C44.5983 33.6992 44.8239 33.7835 45.0244 33.9521C45.2249 34.1208 45.3252 34.3304 45.3252 34.5811C45.3252 34.6631 45.2979 34.8408 45.2432 35.1143C45.193 35.3831 45.168 35.5973 45.168 35.7568C45.168 36.0576 45.1794 36.5088 45.2021 37.1104C45.2295 37.7074 45.2432 38.154 45.2432 38.4502C45.2432 38.596 45.234 38.7852 45.2158 39.0176C45.1976 39.3047 45.1862 39.4938 45.1816 39.585C45.4368 39.6032 45.7194 39.6123 46.0293 39.6123C46.485 39.6123 46.8701 39.5941 47.1846 39.5576C47.2165 39.2796 47.2324 38.9492 47.2324 38.5664C47.2324 38.2474 47.221 37.7689 47.1982 37.1309C47.1755 36.4883 47.1641 36.0052 47.1641 35.6816C47.1641 35.194 47.2301 34.777 47.3623 34.4307C47.5492 33.943 47.8431 33.6992 48.2441 33.6992C48.4948 33.6992 48.7204 33.7835 48.9209 33.9521C49.1214 34.1208 49.2217 34.3304 49.2217 34.5811C49.2217 34.6631 49.1943 34.8408 49.1396 35.1143C49.0895 35.3831 49.0645 35.5973 49.0645 35.7568C49.0645 36.0576 49.0758 36.5088 49.0986 37.1104C49.126 37.7074 49.1396 38.154 49.1396 38.4502C49.1396 38.5915 49.1305 38.7783 49.1123 39.0107C49.0941 39.2979 49.0827 39.4824 49.0781 39.5645ZM56.5635 41.4512C56.3538 41.4512 56.0212 41.2233 55.5654 40.7676C55.1462 40.9681 54.777 41.1185 54.458 41.2188C54.139 41.3236 53.8678 41.376 53.6445 41.376C52.5462 41.376 51.7214 41.082 51.1699 40.4941C50.623 39.9062 50.3496 39.0267 50.3496 37.8555C50.3496 36.7572 50.7552 35.8184 51.5664 35.0391C52.3776 34.2552 53.3483 33.8633 54.4785 33.8633C54.9115 33.8633 55.4128 33.9863 55.9824 34.2324C56.6706 34.5286 57.0146 34.8727 57.0146 35.2646C57.0146 35.4287 56.9622 35.5723 56.8574 35.6953C56.8118 35.8776 56.7754 36.1077 56.748 36.3857C56.7253 36.6592 56.7139 36.9805 56.7139 37.3496C56.7139 38.2201 56.7754 38.8467 56.8984 39.2295C56.9121 39.2705 57.0169 39.5075 57.2129 39.9404C57.3906 40.3324 57.4795 40.5557 57.4795 40.6104C57.4795 40.8519 57.3861 41.0524 57.1992 41.2119C57.0169 41.3714 56.805 41.4512 56.5635 41.4512ZM54.8682 36.7617C54.8682 36.6159 54.8773 36.4495 54.8955 36.2627C54.9183 36.0713 54.9502 35.8594 54.9912 35.627C54.9001 35.5814 54.818 35.5495 54.7451 35.5312C54.6768 35.5085 54.6175 35.4971 54.5674 35.4971C53.9476 35.4971 53.4053 35.7409 52.9404 36.2285C52.4756 36.7116 52.2432 37.2721 52.2432 37.9102C52.2432 38.5208 52.3525 38.9811 52.5713 39.291C52.79 39.5964 53.1182 39.749 53.5557 39.749C53.8382 39.749 54.1048 39.7035 54.3555 39.6123C54.6107 39.5166 54.8499 39.3776 55.0732 39.1953C54.9365 38.1107 54.8682 37.2995 54.8682 36.7617ZM61.8887 41.3145C60.7995 41.3145 59.9085 41.0547 59.2158 40.5352C58.4502 39.9609 58.0674 39.152 58.0674 38.1084C58.0674 36.9554 58.3704 35.9801 58.9766 35.1826C59.651 34.2985 60.5602 33.8564 61.7041 33.8564C62.4971 33.8564 63.1556 33.984 63.6797 34.2393C64.3678 34.5765 64.7119 35.1006 64.7119 35.8115C64.7119 36.3128 64.4316 36.7572 63.8711 37.1445C63.6159 37.3223 63.1032 37.582 62.333 37.9238L60.0293 38.9424C60.248 39.1794 60.5124 39.3571 60.8223 39.4756C61.1322 39.5941 61.4876 39.6533 61.8887 39.6533C62.4993 39.6533 63.0166 39.528 63.4404 39.2773C63.8187 39.054 64.1217 38.9424 64.3496 38.9424C64.8236 38.9424 65.0605 39.1725 65.0605 39.6328C65.0605 40.1523 64.68 40.5762 63.9189 40.9043C63.2809 41.1777 62.6042 41.3145 61.8887 41.3145ZM61.7041 35.5107C61.2803 35.5107 60.918 35.652 60.6172 35.9346C60.3164 36.2171 60.0749 36.641 59.8926 37.2061C60.4076 36.9827 60.9202 36.7617 61.4307 36.543C62.0459 36.265 62.5358 36.0075 62.9004 35.7705C62.5951 35.5973 62.1963 35.5107 61.7041 35.5107ZM68.3623 37.5342C68.2028 37.9808 67.9795 38.653 67.6924 39.5508C67.6058 39.929 67.5215 40.3073 67.4395 40.6855C67.2754 41.1048 66.9701 41.3145 66.5234 41.3145C66.2454 41.3145 66.0221 41.2393 65.8535 41.0889C65.6895 40.9385 65.6074 40.7585 65.6074 40.5488C65.6074 40.0384 65.7441 39.4232 66.0176 38.7031C66.4232 37.6185 66.6396 37.0215 66.667 36.9121C66.7855 36.429 66.904 35.946 67.0225 35.4629C67.2002 34.8158 67.3984 34.376 67.6172 34.1436C67.8405 33.9111 68.1139 33.7949 68.4375 33.7949C68.9889 33.7949 69.3809 34.2324 69.6133 35.1074C69.627 35.1621 69.6885 35.4401 69.7979 35.9414C69.9574 36.6934 70.1921 37.4977 70.502 38.3545C71.1354 37.042 71.5706 35.9368 71.8076 35.0391C72.04 34.1641 72.4525 33.7266 73.0449 33.7266C73.487 33.7266 73.8174 33.9749 74.0361 34.4717C74.1364 34.7041 74.2389 35.1234 74.3438 35.7295C74.5716 37.0374 74.8564 38.1517 75.1982 39.0723C75.5492 40.0293 75.7246 40.5602 75.7246 40.665C75.7246 40.8975 75.6152 41.082 75.3965 41.2188C75.2142 41.3372 75.0137 41.3965 74.7949 41.3965C74.3665 41.3965 74.0452 41.1618 73.8311 40.6924C73.7035 40.2913 73.5758 39.8926 73.4482 39.4961C73.266 38.9629 73.0768 38.2383 72.8809 37.3223C72.7168 37.696 72.4548 38.277 72.0947 39.0654C71.9717 39.3571 71.8486 39.6465 71.7256 39.9336C71.5798 40.2708 71.4294 40.5465 71.2744 40.7607C71.0511 41.0661 70.7458 41.2188 70.3584 41.2188C69.9847 41.2188 69.6976 41.0547 69.4971 40.7266C69.4652 40.6719 69.3398 40.3597 69.1211 39.79C68.8431 39.0791 68.5902 38.3271 68.3623 37.5342ZM85.0283 41.3213C84.4176 41.3213 83.8662 41.2301 83.374 41.0479C82.7132 40.8018 82.3828 40.4395 82.3828 39.9609C82.3828 39.7786 82.474 39.5964 82.6562 39.4141C82.8431 39.2272 83.0391 39.1338 83.2441 39.1338C83.4583 39.1338 83.7523 39.2113 84.126 39.3662C84.5042 39.5212 84.805 39.5986 85.0283 39.5986C85.2015 39.5986 85.3724 39.5212 85.541 39.3662C85.7096 39.2067 85.7939 39.0449 85.7939 38.8809C85.7939 38.6257 85.6139 38.4365 85.2539 38.3135C84.9121 38.2178 84.5726 38.1243 84.2354 38.0332C83.8708 37.9056 83.6885 37.7119 83.6885 37.4521C83.6885 37.1195 83.8229 36.8893 84.0918 36.7617C84.2422 36.6842 84.5179 36.6227 84.9189 36.5771C85.2106 36.5452 85.4089 36.4951 85.5137 36.4268C85.6549 36.3311 85.7256 36.1579 85.7256 35.9072C85.7256 35.57 85.377 35.4014 84.6797 35.4014C84.5384 35.4014 84.3424 35.488 84.0918 35.6611C83.8411 35.8343 83.6064 35.9209 83.3877 35.9209C83.1462 35.9209 82.932 35.848 82.7451 35.7021C82.5446 35.5472 82.4443 35.349 82.4443 35.1074C82.4443 34.7064 82.7428 34.3555 83.3398 34.0547C83.8411 33.804 84.2878 33.6787 84.6797 33.6787C85.377 33.6787 86.0036 33.8291 86.5596 34.1299C87.2523 34.5036 87.5986 35.0231 87.5986 35.6885C87.5986 36.3721 87.3776 36.9372 86.9355 37.3838C87.4004 37.9124 87.6328 38.4115 87.6328 38.8809C87.6328 39.6191 87.3958 40.2116 86.9219 40.6582C86.4479 41.1003 85.8167 41.3213 85.0283 41.3213ZM94.4141 41.2529C94.1406 41.2529 93.9128 41.1686 93.7305 41C93.5482 40.8314 93.457 40.6195 93.457 40.3643C93.457 39.9678 93.4479 39.2568 93.4297 38.2314C93.3431 38.2314 93.2679 38.2314 93.2041 38.2314C92.2243 38.2314 91.2741 38.3294 90.3535 38.5254C90.349 38.7031 90.3239 39.0244 90.2783 39.4893C90.2419 39.8857 90.2236 40.2139 90.2236 40.4736C90.2236 40.7288 90.1325 40.9408 89.9502 41.1094C89.7725 41.278 89.5469 41.3623 89.2734 41.3623C89 41.3623 88.7721 41.278 88.5898 41.1094C88.4121 40.9408 88.3232 40.7266 88.3232 40.4668C88.3232 40.3118 88.3438 40.1022 88.3848 39.8379C88.4303 39.569 88.4531 39.3571 88.4531 39.2021C88.4531 38.9469 88.4463 38.5641 88.4326 38.0537C88.4189 37.5387 88.4121 37.1536 88.4121 36.8984C88.4121 36.6296 88.4121 36.2331 88.4121 35.709C88.4167 35.1849 88.4189 34.7884 88.4189 34.5195C88.4189 34.2643 88.5078 34.0524 88.6855 33.8838C88.8678 33.7152 89.0957 33.6309 89.3691 33.6309C89.6426 33.6309 89.8704 33.7152 90.0527 33.8838C90.235 34.0524 90.3262 34.2643 90.3262 34.5195C90.3262 34.8112 90.3307 35.1758 90.3398 35.6133C90.3535 36.2194 90.3604 36.5794 90.3604 36.6934C91.3219 36.5111 92.3359 36.4313 93.4023 36.4541V36.3037C93.4023 36.0713 93.4115 35.7386 93.4297 35.3057C93.4479 34.8727 93.457 34.5446 93.457 34.3213C93.457 34.0661 93.5482 33.8542 93.7305 33.6855C93.9128 33.5169 94.1406 33.4326 94.4141 33.4326C94.6875 33.4326 94.9131 33.5169 95.0908 33.6855C95.2731 33.8542 95.3643 34.0661 95.3643 34.3213C95.3643 34.5492 95.3551 34.8796 95.3369 35.3125C95.3187 35.7454 95.3096 36.0758 95.3096 36.3037C95.3096 36.7686 95.3187 37.4453 95.3369 38.334C95.3551 39.2227 95.3643 39.8994 95.3643 40.3643C95.3643 40.6195 95.2731 40.8314 95.0908 41C94.9131 41.1686 94.6875 41.2529 94.4141 41.2529ZM102.515 41.4512C102.305 41.4512 101.972 41.2233 101.517 40.7676C101.097 40.9681 100.728 41.1185 100.409 41.2188C100.09 41.3236 99.819 41.376 99.5957 41.376C98.4974 41.376 97.6725 41.082 97.1211 40.4941C96.5742 39.9062 96.3008 39.0267 96.3008 37.8555C96.3008 36.7572 96.7064 35.8184 97.5176 35.0391C98.3288 34.2552 99.2995 33.8633 100.43 33.8633C100.863 33.8633 101.364 33.9863 101.934 34.2324C102.622 34.5286 102.966 34.8727 102.966 35.2646C102.966 35.4287 102.913 35.5723 102.809 35.6953C102.763 35.8776 102.727 36.1077 102.699 36.3857C102.676 36.6592 102.665 36.9805 102.665 37.3496C102.665 38.2201 102.727 38.8467 102.85 39.2295C102.863 39.2705 102.968 39.5075 103.164 39.9404C103.342 40.3324 103.431 40.5557 103.431 40.6104C103.431 40.8519 103.337 41.0524 103.15 41.2119C102.968 41.3714 102.756 41.4512 102.515 41.4512ZM100.819 36.7617C100.819 36.6159 100.828 36.4495 100.847 36.2627C100.869 36.0713 100.901 35.8594 100.942 35.627C100.851 35.5814 100.769 35.5495 100.696 35.5312C100.628 35.5085 100.569 35.4971 100.519 35.4971C99.8988 35.4971 99.3564 35.7409 98.8916 36.2285C98.4268 36.7116 98.1943 37.2721 98.1943 37.9102C98.1943 38.5208 98.3037 38.9811 98.5225 39.291C98.7412 39.5964 99.0693 39.749 99.5068 39.749C99.7894 39.749 100.056 39.7035 100.307 39.6123C100.562 39.5166 100.801 39.3776 101.024 39.1953C100.888 38.1107 100.819 37.2995 100.819 36.7617ZM110.027 41.2529C109.754 41.2529 109.526 41.1686 109.344 41C109.161 40.8314 109.07 40.6195 109.07 40.3643C109.07 39.9678 109.061 39.2568 109.043 38.2314C108.956 38.2314 108.881 38.2314 108.817 38.2314C107.838 38.2314 106.887 38.3294 105.967 38.5254C105.962 38.7031 105.937 39.0244 105.892 39.4893C105.855 39.8857 105.837 40.2139 105.837 40.4736C105.837 40.7288 105.746 40.9408 105.563 41.1094C105.386 41.278 105.16 41.3623 104.887 41.3623C104.613 41.3623 104.385 41.278 104.203 41.1094C104.025 40.9408 103.937 40.7266 103.937 40.4668C103.937 40.3118 103.957 40.1022 103.998 39.8379C104.044 39.569 104.066 39.3571 104.066 39.2021C104.066 38.9469 104.06 38.5641 104.046 38.0537C104.032 37.5387 104.025 37.1536 104.025 36.8984C104.025 36.6296 104.025 36.2331 104.025 35.709C104.03 35.1849 104.032 34.7884 104.032 34.5195C104.032 34.2643 104.121 34.0524 104.299 33.8838C104.481 33.7152 104.709 33.6309 104.982 33.6309C105.256 33.6309 105.484 33.7152 105.666 33.8838C105.848 34.0524 105.939 34.2643 105.939 34.5195C105.939 34.8112 105.944 35.1758 105.953 35.6133C105.967 36.2194 105.974 36.5794 105.974 36.6934C106.935 36.5111 107.949 36.4313 109.016 36.4541V36.3037C109.016 36.0713 109.025 35.7386 109.043 35.3057C109.061 34.8727 109.07 34.5446 109.07 34.3213C109.07 34.0661 109.161 33.8542 109.344 33.6855C109.526 33.5169 109.754 33.4326 110.027 33.4326C110.301 33.4326 110.526 33.5169 110.704 33.6855C110.886 33.8542 110.978 34.0661 110.978 34.3213C110.978 34.5492 110.968 34.8796 110.95 35.3125C110.932 35.7454 110.923 36.0758 110.923 36.3037C110.923 36.7686 110.932 37.4453 110.95 38.334C110.968 39.2227 110.978 39.8994 110.978 40.3643C110.978 40.6195 110.886 40.8314 110.704 41C110.526 41.1686 110.301 41.2529 110.027 41.2529ZM119.652 40.5078C119.652 40.7585 119.561 40.9681 119.379 41.1367C119.197 41.3099 118.971 41.3965 118.702 41.3965C118.429 41.3965 118.201 41.3099 118.019 41.1367C117.836 40.9681 117.745 40.7585 117.745 40.5078C117.745 40.2344 117.759 39.8242 117.786 39.2773C117.813 38.7259 117.827 38.3135 117.827 38.04C117.827 37.7894 117.816 37.5251 117.793 37.2471C116.945 38.391 116.184 39.2318 115.51 39.7695C114.899 40.2526 114.446 40.6377 114.149 40.9248C113.853 41.2074 113.534 41.3486 113.192 41.3486C112.937 41.3486 112.709 41.2848 112.509 41.1572C112.276 41.0023 112.16 40.7858 112.16 40.5078C112.16 39.3001 112.137 38.04 112.092 36.7275C112.042 35.3649 112.017 34.6973 112.017 34.7246C112.017 34.4648 112.105 34.2507 112.283 34.082C112.461 33.9089 112.691 33.8223 112.974 33.8223C113.484 33.8223 113.796 34.0866 113.91 34.6152C113.928 34.6882 113.949 35.1302 113.972 35.9414L114.04 38.5459C114.628 38.0173 115.255 37.3633 115.92 36.584C116.075 36.4017 116.642 35.7021 117.622 34.4854C117.946 34.0798 118.306 33.877 118.702 33.877C118.971 33.877 119.197 33.9635 119.379 34.1367C119.561 34.3053 119.652 34.515 119.652 34.7656C119.652 35.2396 119.661 35.9505 119.68 36.8984C119.698 37.8464 119.707 38.5573 119.707 39.0312C119.707 39.1953 119.698 39.4414 119.68 39.7695C119.661 40.0977 119.652 40.3438 119.652 40.5078ZM125.969 41.2461C125.7 41.2461 125.47 41.1641 125.278 41C125.073 40.8314 124.971 40.6172 124.971 40.3574C124.971 40.2298 124.962 39.8333 124.943 39.168C124.228 39.4323 123.28 40.043 122.1 41C121.89 41.1686 121.66 41.2529 121.409 41.2529C121.145 41.2529 120.91 41.1686 120.705 41C120.505 40.8268 120.404 40.6149 120.404 40.3643C120.404 39.9359 121.056 39.3389 122.359 38.5732C121.398 38.0993 120.917 37.516 120.917 36.8232C120.917 35.766 121.664 34.9069 123.159 34.2461C123.774 33.9727 124.629 33.8359 125.723 33.8359C126.042 33.8359 126.306 33.943 126.516 34.1572C126.73 34.3669 126.837 34.6198 126.837 34.916C126.837 35.5176 126.857 36.4245 126.898 37.6367C126.944 38.8444 126.967 39.7513 126.967 40.3574C126.967 40.6126 126.867 40.8245 126.666 40.9932C126.465 41.1618 126.233 41.2461 125.969 41.2461ZM124.834 35.5518C124.479 35.5745 124.096 35.6999 123.686 35.9277C123.212 36.1921 122.956 36.4792 122.92 36.7891C123.102 37.099 123.392 37.304 123.788 37.4043C124.039 37.4727 124.41 37.5046 124.902 37.5C124.88 37.0762 124.857 36.4268 124.834 35.5518Z" fill="white"/>
</svg>
