<svg width="40" height="47" viewBox="0 0 40 47" fill="none" xmlns="http://www.w3.org/2000/svg">
<path fill-rule="evenodd" clip-rule="evenodd" d="M0 2C0 0.89543 0.895431 0 2 0H10C11.1046 0 12 0.895431 12 2V13H0V2ZM0 14.5H12V16.5H0V14.5ZM0 18V45C0 46.1046 0.895431 47 2 47H10C11.1046 47 12 46.1046 12 45V18H0Z" fill="#F75725"/>
<path fill-rule="evenodd" clip-rule="evenodd" d="M28 2C28 0.89543 28.8954 0 30 0H38C39.1046 0 40 0.895431 40 2V13H28V2ZM28 14.5H40V16.5H28V14.5ZM28 18V45C28 46.1046 28.8954 47 30 47H38C39.1046 47 40 46.1046 40 45V18H28Z" fill="#F75725"/>
<path fill-rule="evenodd" clip-rule="evenodd" d="M16 6C14.8954 6 14 6.89543 14 8V13H26V8C26 6.89543 25.1046 6 24 6H16ZM26 14.5H14V16.5H26V14.5ZM14 45V18H26V45C26 46.1046 25.1046 47 24 47H16C14.8954 47 14 46.1046 14 45ZM19.15 30.37L23.588 30.244V27.36L16.504 27.5L16.42 38.014H19.304L19.234 34.724L22.594 34.682L22.37 31.77L19.178 31.812L19.15 30.37Z" fill="white"/>
</svg>
