<svg width="12" height="41" viewBox="0 0 12 41" fill="none" xmlns="http://www.w3.org/2000/svg">
<path fill-rule="evenodd" clip-rule="evenodd" d="M2.00259 0C0.898017 0 0.00252675 0.895431 0.00245351 2L0.00212836 7.00001H11.9997L12 2C12.0001 0.89543 11.1047 0 10.0001 0H2.00259ZM11.9996 8.50001H0.00202857L0.00188422 10.5H11.9994L11.9996 8.50001ZM11.9975 39L11.9993 12H0.00178443L4.49348e-09 39C-7.32404e-05 40.1046 0.895296 41 1.99987 41H9.99741C11.102 41 11.9975 40.1046 11.9975 39ZM7.55264 28.4016L8.0805 30.4056L10.6605 30.0096L7.73312 21.0936L5.23712 21.0696L1.28853 29.9616L3.92851 30.3096L4.68464 28.2696L7.55264 28.4016ZM6.8928 25.8936L5.59681 25.7856L6.34094 23.7576L6.8928 25.8936Z" fill="white"/>
</svg>
