<svg width="100" height="75" viewBox="0 0 100 75" fill="none" xmlns="http://www.w3.org/2000/svg">
<g clip-path="url(#clip0_728_110)">
<path fill-rule="evenodd" clip-rule="evenodd" d="M0 3.125C0 1.39911 1.39911 0 3.125 0H15.6894C17.4152 0 18.8144 1.39911 18.8144 3.125V20.3794H0V3.125ZM0 22.7308H18.8144V25.8661H0V22.7308ZM0 28.2175V70.5541C0 72.28 1.39911 73.6791 3.125 73.6791H15.6894C17.4153 73.6791 18.8144 72.28 18.8144 70.5541V28.2175H0Z" fill="#F75725"/>
<path fill-rule="evenodd" clip-rule="evenodd" d="M43.8994 3.125C43.8994 1.39911 45.2985 0 47.0244 0H59.5888C61.3147 0 62.7138 1.39911 62.7138 3.125V20.3794H43.8994V3.125ZM43.8994 22.7308H62.7138V25.8661H43.8994V22.7308ZM43.8994 28.2175V70.5541C43.8994 72.28 45.2985 73.6791 47.0244 73.6791H59.5888C61.3147 73.6791 62.7138 72.28 62.7138 70.5541V28.2175H43.8994Z" fill="#F75725"/>
<path fill-rule="evenodd" clip-rule="evenodd" d="M25.0752 9.40601C23.3493 9.40601 21.9502 10.8051 21.9502 12.531V20.3795H40.7644V12.531C40.7644 10.8051 39.3654 9.40601 37.6394 9.40601H25.0752ZM40.7644 22.7309H21.9502V25.8662H40.7644V22.7309ZM21.9502 70.5543V28.2178H40.7644V70.5543C40.7644 72.2801 39.3654 73.6793 37.6394 73.6793H25.0752C23.3493 73.6793 21.9502 72.2801 21.9502 70.5543ZM30.0077 47.5767L36.9421 47.3798V42.8735L25.8733 43.0923L25.7421 59.5204H30.2483L30.1389 54.3798L35.3889 54.3142L35.0389 49.7642L30.0514 49.8298L30.0077 47.5767Z" fill="#F75725"/>
<path fill-rule="evenodd" clip-rule="evenodd" d="M84.7774 8.8411C83.1027 8.42363 81.4068 9.44274 80.9891 11.1173L79.0901 18.7327L97.3457 23.2837L99.2446 15.6684C99.6622 13.9937 98.6432 12.2977 96.9685 11.8803L84.7774 8.8411ZM96.7766 25.5652L78.5212 21.0143L77.7626 24.0565L96.018 28.6074L96.7766 25.5652ZM66.9501 67.4171L77.1937 26.3381L95.4491 30.889L85.2055 71.9681C84.7879 73.6427 83.0918 74.6618 81.4172 74.2443L69.2262 71.2052C67.5515 70.7877 66.5324 69.0918 66.9501 67.4171ZM82.4247 54.0932L82.4676 57.331L86.5288 57.7057L85.4604 43.0818L81.6854 42.102L72.338 54.0909L76.209 55.6162L78.1265 52.8091L82.4247 54.0932ZM82.3722 50.0415L80.4482 49.3879L82.3429 46.5945L82.3722 50.0415Z" fill="#F75725"/>
</g>
<defs>
<clipPath id="clip0_728_110">
<rect width="100" height="75" fill="white"/>
</clipPath>
</defs>
</svg>
